<svg xmlns="http://www.w3.org/2000/svg" xmlns:xlink="http://www.w3.org/1999/xlink" width="171" zoomAndPan="magnify" viewBox="0 0 128.25 40.499999" height="54" preserveAspectRatio="xMidYMid meet" version="1.0"><defs><g/><clipPath id="f02dfbf20e"><path d="M 0.410156 0 L 127.097656 0 L 127.097656 40.007812 L 0.410156 40.007812 Z M 0.410156 0 " clip-rule="nonzero"/></clipPath></defs><g clip-path="url(#f02dfbf20e)"><path fill="#ffffff" d="M 0.410156 0 L 127.097656 0 L 127.097656 40.007812 L 0.410156 40.007812 Z M 0.410156 0 " fill-opacity="1" fill-rule="nonzero"/></g><g fill="#3e9d05" fill-opacity="1"><g transform="translate(8.02692, 26.681228)"><g><path d="M 10.875 -6.828125 L 4.65625 -6.828125 L 4.65625 -2.609375 L 11.953125 -2.609375 L 11.953125 0 L 1.40625 0 L 1.40625 -15.734375 L 11.9375 -15.734375 L 11.9375 -13.109375 L 4.65625 -13.109375 L 4.65625 -9.359375 L 10.875 -9.359375 Z M 10.875 -6.828125 "/></g></g></g><g fill="#3e9d05" fill-opacity="1"><g transform="translate(20.476733, 26.681228)"><g><path d="M 14.21875 0 L 10.96875 0 L 10.96875 -6.75 L 4.65625 -6.75 L 4.65625 0 L 1.40625 0 L 1.40625 -15.734375 L 4.65625 -15.734375 L 4.65625 -9.359375 L 10.96875 -9.359375 L 10.96875 -15.734375 L 14.21875 -15.734375 Z M 14.21875 0 "/></g></g></g><g fill="#3e9d05" fill-opacity="1"><g transform="translate(36.11465, 26.681228)"><g><path d="M 9.5625 -4.125 C 9.5625 -4.738281 9.34375 -5.207031 8.90625 -5.53125 C 8.476562 -5.863281 7.703125 -6.210938 6.578125 -6.578125 C 5.453125 -6.941406 4.5625 -7.300781 3.90625 -7.65625 C 2.125 -8.625 1.234375 -9.925781 1.234375 -11.5625 C 1.234375 -12.40625 1.472656 -13.160156 1.953125 -13.828125 C 2.429688 -14.492188 3.117188 -15.015625 4.015625 -15.390625 C 4.910156 -15.765625 5.914062 -15.953125 7.03125 -15.953125 C 8.15625 -15.953125 9.15625 -15.75 10.03125 -15.34375 C 10.914062 -14.9375 11.601562 -14.363281 12.09375 -13.625 C 12.582031 -12.882812 12.828125 -12.039062 12.828125 -11.09375 L 9.578125 -11.09375 C 9.578125 -11.8125 9.347656 -12.367188 8.890625 -12.765625 C 8.441406 -13.171875 7.804688 -13.375 6.984375 -13.375 C 6.191406 -13.375 5.570312 -13.207031 5.125 -12.875 C 4.6875 -12.539062 4.46875 -12.097656 4.46875 -11.546875 C 4.46875 -11.035156 4.722656 -10.601562 5.234375 -10.25 C 5.753906 -9.90625 6.519531 -9.582031 7.53125 -9.28125 C 9.375 -8.726562 10.71875 -8.039062 11.5625 -7.21875 C 12.40625 -6.394531 12.828125 -5.375 12.828125 -4.15625 C 12.828125 -2.789062 12.3125 -1.71875 11.28125 -0.9375 C 10.25 -0.164062 8.859375 0.21875 7.109375 0.21875 C 5.898438 0.21875 4.796875 0 3.796875 -0.4375 C 2.804688 -0.882812 2.050781 -1.492188 1.53125 -2.265625 C 1.007812 -3.035156 0.75 -3.929688 0.75 -4.953125 L 4 -4.953125 C 4 -3.210938 5.035156 -2.34375 7.109375 -2.34375 C 7.878906 -2.34375 8.476562 -2.5 8.90625 -2.8125 C 9.34375 -3.125 9.5625 -3.5625 9.5625 -4.125 Z M 9.5625 -4.125 "/></g></g></g><g fill="#3e9d05" fill-opacity="1"><g transform="translate(49.720826, 26.681228)"><g><path d="M 10.296875 -3.25 L 4.609375 -3.25 L 3.53125 0 L 0.078125 0 L 5.9375 -15.734375 L 8.9375 -15.734375 L 14.828125 0 L 11.390625 0 Z M 5.484375 -5.875 L 9.421875 -5.875 L 7.4375 -11.765625 Z M 5.484375 -5.875 "/></g></g></g><g fill="#3e9d05" fill-opacity="1"><g transform="translate(64.61305, 26.681228)"><g><path d="M 9.5625 -4.125 C 9.5625 -4.738281 9.34375 -5.207031 8.90625 -5.53125 C 8.476562 -5.863281 7.703125 -6.210938 6.578125 -6.578125 C 5.453125 -6.941406 4.5625 -7.300781 3.90625 -7.65625 C 2.125 -8.625 1.234375 -9.925781 1.234375 -11.5625 C 1.234375 -12.40625 1.472656 -13.160156 1.953125 -13.828125 C 2.429688 -14.492188 3.117188 -15.015625 4.015625 -15.390625 C 4.910156 -15.765625 5.914062 -15.953125 7.03125 -15.953125 C 8.15625 -15.953125 9.15625 -15.75 10.03125 -15.34375 C 10.914062 -14.9375 11.601562 -14.363281 12.09375 -13.625 C 12.582031 -12.882812 12.828125 -12.039062 12.828125 -11.09375 L 9.578125 -11.09375 C 9.578125 -11.8125 9.347656 -12.367188 8.890625 -12.765625 C 8.441406 -13.171875 7.804688 -13.375 6.984375 -13.375 C 6.191406 -13.375 5.570312 -13.207031 5.125 -12.875 C 4.6875 -12.539062 4.46875 -12.097656 4.46875 -11.546875 C 4.46875 -11.035156 4.722656 -10.601562 5.234375 -10.25 C 5.753906 -9.90625 6.519531 -9.582031 7.53125 -9.28125 C 9.375 -8.726562 10.71875 -8.039062 11.5625 -7.21875 C 12.40625 -6.394531 12.828125 -5.375 12.828125 -4.15625 C 12.828125 -2.789062 12.3125 -1.71875 11.28125 -0.9375 C 10.25 -0.164062 8.859375 0.21875 7.109375 0.21875 C 5.898438 0.21875 4.796875 0 3.796875 -0.4375 C 2.804688 -0.882812 2.050781 -1.492188 1.53125 -2.265625 C 1.007812 -3.035156 0.75 -3.929688 0.75 -4.953125 L 4 -4.953125 C 4 -3.210938 5.035156 -2.34375 7.109375 -2.34375 C 7.878906 -2.34375 8.476562 -2.5 8.90625 -2.8125 C 9.34375 -3.125 9.5625 -3.5625 9.5625 -4.125 Z M 9.5625 -4.125 "/></g></g></g><g fill="#001839" fill-opacity="1"><g transform="translate(78.222799, 26.681228)"><g><path d="M 4.65625 -2.609375 L 11.53125 -2.609375 L 11.53125 0 L 1.40625 0 L 1.40625 -15.734375 L 4.65625 -15.734375 Z M 4.65625 -2.609375 "/></g></g></g><g fill="#001839" fill-opacity="1"><g transform="translate(90.207905, 26.681228)"><g><path d="M 10.296875 -3.25 L 4.609375 -3.25 L 3.53125 0 L 0.078125 0 L 5.9375 -15.734375 L 8.9375 -15.734375 L 14.828125 0 L 11.390625 0 Z M 5.484375 -5.875 L 9.421875 -5.875 L 7.4375 -11.765625 Z M 5.484375 -5.875 "/></g></g></g><g fill="#001839" fill-opacity="1"><g transform="translate(105.100129, 26.681228)"><g><path d="M 1.40625 0 L 1.40625 -15.734375 L 6.921875 -15.734375 C 8.828125 -15.734375 10.273438 -15.367188 11.265625 -14.640625 C 12.253906 -13.910156 12.75 -12.835938 12.75 -11.421875 C 12.75 -10.648438 12.550781 -9.972656 12.15625 -9.390625 C 11.757812 -8.804688 11.207031 -8.375 10.5 -8.09375 C 11.300781 -7.894531 11.9375 -7.488281 12.40625 -6.875 C 12.875 -6.257812 13.109375 -5.507812 13.109375 -4.625 C 13.109375 -3.113281 12.625 -1.96875 11.65625 -1.1875 C 10.6875 -0.40625 9.3125 -0.0078125 7.53125 0 Z M 4.65625 -6.859375 L 4.65625 -2.609375 L 7.421875 -2.609375 C 8.191406 -2.609375 8.789062 -2.789062 9.21875 -3.15625 C 9.644531 -3.519531 9.859375 -4.019531 9.859375 -4.65625 C 9.859375 -6.101562 9.113281 -6.835938 7.625 -6.859375 Z M 4.65625 -9.140625 L 7.046875 -9.140625 C 8.679688 -9.171875 9.5 -9.828125 9.5 -11.109375 C 9.5 -11.816406 9.289062 -12.328125 8.875 -12.640625 C 8.46875 -12.953125 7.816406 -13.109375 6.921875 -13.109375 L 4.65625 -13.109375 Z M 4.65625 -9.140625 "/></g></g></g><g fill="#3e9d05" fill-opacity="1"><g transform="translate(8.02692, 26.681228)"><g><path d="M 10.875 -6.828125 L 4.65625 -6.828125 L 4.65625 -2.609375 L 11.953125 -2.609375 L 11.953125 0 L 1.40625 0 L 1.40625 -15.734375 L 11.9375 -15.734375 L 11.9375 -13.109375 L 4.65625 -13.109375 L 4.65625 -9.359375 L 10.875 -9.359375 Z M 10.875 -6.828125 "/></g></g></g><g fill="#3e9d05" fill-opacity="1"><g transform="translate(20.476733, 26.681228)"><g><path d="M 14.21875 0 L 10.96875 0 L 10.96875 -6.75 L 4.65625 -6.75 L 4.65625 0 L 1.40625 0 L 1.40625 -15.734375 L 4.65625 -15.734375 L 4.65625 -9.359375 L 10.96875 -9.359375 L 10.96875 -15.734375 L 14.21875 -15.734375 Z M 14.21875 0 "/></g></g></g><g fill="#3e9d05" fill-opacity="1"><g transform="translate(36.11465, 26.681228)"><g><path d="M 9.5625 -4.125 C 9.5625 -4.738281 9.34375 -5.207031 8.90625 -5.53125 C 8.476562 -5.863281 7.703125 -6.210938 6.578125 -6.578125 C 5.453125 -6.941406 4.5625 -7.300781 3.90625 -7.65625 C 2.125 -8.625 1.234375 -9.925781 1.234375 -11.5625 C 1.234375 -12.40625 1.472656 -13.160156 1.953125 -13.828125 C 2.429688 -14.492188 3.117188 -15.015625 4.015625 -15.390625 C 4.910156 -15.765625 5.914062 -15.953125 7.03125 -15.953125 C 8.15625 -15.953125 9.15625 -15.75 10.03125 -15.34375 C 10.914062 -14.9375 11.601562 -14.363281 12.09375 -13.625 C 12.582031 -12.882812 12.828125 -12.039062 12.828125 -11.09375 L 9.578125 -11.09375 C 9.578125 -11.8125 9.347656 -12.367188 8.890625 -12.765625 C 8.441406 -13.171875 7.804688 -13.375 6.984375 -13.375 C 6.191406 -13.375 5.570312 -13.207031 5.125 -12.875 C 4.6875 -12.539062 4.46875 -12.097656 4.46875 -11.546875 C 4.46875 -11.035156 4.722656 -10.601562 5.234375 -10.25 C 5.753906 -9.90625 6.519531 -9.582031 7.53125 -9.28125 C 9.375 -8.726562 10.71875 -8.039062 11.5625 -7.21875 C 12.40625 -6.394531 12.828125 -5.375 12.828125 -4.15625 C 12.828125 -2.789062 12.3125 -1.71875 11.28125 -0.9375 C 10.25 -0.164062 8.859375 0.21875 7.109375 0.21875 C 5.898438 0.21875 4.796875 0 3.796875 -0.4375 C 2.804688 -0.882812 2.050781 -1.492188 1.53125 -2.265625 C 1.007812 -3.035156 0.75 -3.929688 0.75 -4.953125 L 4 -4.953125 C 4 -3.210938 5.035156 -2.34375 7.109375 -2.34375 C 7.878906 -2.34375 8.476562 -2.5 8.90625 -2.8125 C 9.34375 -3.125 9.5625 -3.5625 9.5625 -4.125 Z M 9.5625 -4.125 "/></g></g></g><g fill="#3e9d05" fill-opacity="1"><g transform="translate(49.720826, 26.681228)"><g><path d="M 10.296875 -3.25 L 4.609375 -3.25 L 3.53125 0 L 0.078125 0 L 5.9375 -15.734375 L 8.9375 -15.734375 L 14.828125 0 L 11.390625 0 Z M 5.484375 -5.875 L 9.421875 -5.875 L 7.4375 -11.765625 Z M 5.484375 -5.875 "/></g></g></g><g fill="#3e9d05" fill-opacity="1"><g transform="translate(64.61305, 26.681228)"><g><path d="M 9.5625 -4.125 C 9.5625 -4.738281 9.34375 -5.207031 8.90625 -5.53125 C 8.476562 -5.863281 7.703125 -6.210938 6.578125 -6.578125 C 5.453125 -6.941406 4.5625 -7.300781 3.90625 -7.65625 C 2.125 -8.625 1.234375 -9.925781 1.234375 -11.5625 C 1.234375 -12.40625 1.472656 -13.160156 1.953125 -13.828125 C 2.429688 -14.492188 3.117188 -15.015625 4.015625 -15.390625 C 4.910156 -15.765625 5.914062 -15.953125 7.03125 -15.953125 C 8.15625 -15.953125 9.15625 -15.75 10.03125 -15.34375 C 10.914062 -14.9375 11.601562 -14.363281 12.09375 -13.625 C 12.582031 -12.882812 12.828125 -12.039062 12.828125 -11.09375 L 9.578125 -11.09375 C 9.578125 -11.8125 9.347656 -12.367188 8.890625 -12.765625 C 8.441406 -13.171875 7.804688 -13.375 6.984375 -13.375 C 6.191406 -13.375 5.570312 -13.207031 5.125 -12.875 C 4.6875 -12.539062 4.46875 -12.097656 4.46875 -11.546875 C 4.46875 -11.035156 4.722656 -10.601562 5.234375 -10.25 C 5.753906 -9.90625 6.519531 -9.582031 7.53125 -9.28125 C 9.375 -8.726562 10.71875 -8.039062 11.5625 -7.21875 C 12.40625 -6.394531 12.828125 -5.375 12.828125 -4.15625 C 12.828125 -2.789062 12.3125 -1.71875 11.28125 -0.9375 C 10.25 -0.164062 8.859375 0.21875 7.109375 0.21875 C 5.898438 0.21875 4.796875 0 3.796875 -0.4375 C 2.804688 -0.882812 2.050781 -1.492188 1.53125 -2.265625 C 1.007812 -3.035156 0.75 -3.929688 0.75 -4.953125 L 4 -4.953125 C 4 -3.210938 5.035156 -2.34375 7.109375 -2.34375 C 7.878906 -2.34375 8.476562 -2.5 8.90625 -2.8125 C 9.34375 -3.125 9.5625 -3.5625 9.5625 -4.125 Z M 9.5625 -4.125 "/></g></g></g><g fill="#001839" fill-opacity="1"><g transform="translate(78.222799, 26.681228)"><g><path d="M 4.65625 -2.609375 L 11.53125 -2.609375 L 11.53125 0 L 1.40625 0 L 1.40625 -15.734375 L 4.65625 -15.734375 Z M 4.65625 -2.609375 "/></g></g></g><g fill="#001839" fill-opacity="1"><g transform="translate(90.207905, 26.681228)"><g><path d="M 10.296875 -3.25 L 4.609375 -3.25 L 3.53125 0 L 0.078125 0 L 5.9375 -15.734375 L 8.9375 -15.734375 L 14.828125 0 L 11.390625 0 Z M 5.484375 -5.875 L 9.421875 -5.875 L 7.4375 -11.765625 Z M 5.484375 -5.875 "/></g></g></g><g fill="#001839" fill-opacity="1"><g transform="translate(105.100129, 26.681228)"><g><path d="M 1.40625 0 L 1.40625 -15.734375 L 6.921875 -15.734375 C 8.828125 -15.734375 10.273438 -15.367188 11.265625 -14.640625 C 12.253906 -13.910156 12.75 -12.835938 12.75 -11.421875 C 12.75 -10.648438 12.550781 -9.972656 12.15625 -9.390625 C 11.757812 -8.804688 11.207031 -8.375 10.5 -8.09375 C 11.300781 -7.894531 11.9375 -7.488281 12.40625 -6.875 C 12.875 -6.257812 13.109375 -5.507812 13.109375 -4.625 C 13.109375 -3.113281 12.625 -1.96875 11.65625 -1.1875 C 10.6875 -0.40625 9.3125 -0.0078125 7.53125 0 Z M 4.65625 -6.859375 L 4.65625 -2.609375 L 7.421875 -2.609375 C 8.191406 -2.609375 8.789062 -2.789062 9.21875 -3.15625 C 9.644531 -3.519531 9.859375 -4.019531 9.859375 -4.65625 C 9.859375 -6.101562 9.113281 -6.835938 7.625 -6.859375 Z M 4.65625 -9.140625 L 7.046875 -9.140625 C 8.679688 -9.171875 9.5 -9.828125 9.5 -11.109375 C 9.5 -11.816406 9.289062 -12.328125 8.875 -12.640625 C 8.46875 -12.953125 7.816406 -13.109375 6.921875 -13.109375 L 4.65625 -13.109375 Z M 4.65625 -9.140625 "/></g></g></g></svg>